<svg xmlns="http://www.w3.org/2000/svg" viewBox="0 0 981.41 98.98"><defs><style>.a,.b,.c,.d{fill:#fff;}.b{font-size:45.87px;font-family:SFAutomatonExtended, SF Automaton Extended;letter-spacing:0.1em;}.c{stroke:#fff;stroke-miterlimit:10;}.d{font-size:24px;font-family:Lato-Light, Lato;font-weight:300;letter-spacing:0.15em;}.e{letter-spacing:0.06em;}.f{letter-spacing:0.09em;}.g{letter-spacing:0.15em;}.h{letter-spacing:0.13em;}</style></defs><title>MaintenanceMode</title><path class="a" d="M676.92,119.39V81.54L662.4,71.66l-13.49,9.23-13.54-9.18-14.52,9.88v37.8l14.52,9.89,13.54-9.18h0l13.54,9.18Zm-13.49,6.79v-18.4l-14.52,9.88h0L636.17,109,675,83.79v34.53ZM674.11,82l-12,7.82L650.69,82.1l11.76-8ZM636.4,74.75l10.77,7.31L636.4,89.37Zm-13.54,7.87,11.53-7.87V93.16l14.52-9.88L660.24,91l-25.85,16.82h0v18.41l-11.53-7.87Zm13.54,43.56V111.52l10.77,7.31Zm25.06-14.61v14.61l-10.77-7.3Z" transform="translate(-99.59 -51)"/><path class="a" d="M648.91,150l-42.86-24.73V75.73L648.91,51l42.86,24.73V125.2l-.47.28Zm-41-25.81,41,23.66,41-23.66V76.86l-41-23.71-41,23.66Z" transform="translate(-99.59 -51)"/><text class="b" transform="translate(609.49 60.37) scale(1 0.9)">novamining</text><line class="c" x1="483.41" y1="8" x2="483.41" y2="91"/><text class="d" transform="translate(4.9 43)">DECENTRALIZED PEER<tspan class="e" x="320.53" y="0">-</tspan><tspan class="f" x="329.95" y="0">T</tspan><tspan class="g" x="346.14" y="0">O-PEER</tspan><tspan x="-4.9" y="28.8">HASHING POWER MARKETPL</tspan><tspan class="h" x="400.54" y="28.8">A</tspan><tspan x="419.25" y="28.8">CE</tspan></text></svg>