<svg xmlns="http://www.w3.org/2000/svg" viewBox="0 0 470.37 161.99"><defs><style>.a,.b{fill:#fff;}.b{stroke:#fff;stroke-miterlimit:10;}</style></defs><title>MaintenanceSmall</title><path class="a" d="M132.92,89.39V51.54L118.4,41.66l-13.49,9.23L91.37,41.71,76.85,51.59v37.8l14.52,9.89,13.54-9.18h0l13.54,9.18Zm-13.49,6.79V77.78l-14.52,9.88h0L92.17,79,131,53.79V88.32ZM130.11,52l-12,7.82L106.69,52.1l11.76-8ZM92.4,44.75l10.77,7.31L92.4,59.37ZM78.86,52.62l11.53-7.87V63.16l14.52-9.88L116.24,61,90.39,77.82h0V96.23L78.86,88.36ZM92.4,96.18V81.52l10.77,7.31Zm25.06-14.61V96.18l-10.77-7.3Z" transform="translate(-62.05 -21)"/><path class="a" d="M104.91,120,62.05,95.25V45.73L104.91,21l42.86,24.73V95.2l-.47.28Zm-41-25.81,41,23.66,41-23.66V46.86l-41-23.71-41,23.66Z" transform="translate(-62.05 -21)"/><path class="a" d="M201.77,81.37h-9.16V63.13a2.05,2.05,0,0,0-.94-1.69,3.83,3.83,0,0,0-2.28-.71H174.27V81.37h-9.18V53.86H190.3a13,13,0,0,1,8.11,2.54,7.38,7.38,0,0,1,3.36,6Z" transform="translate(-62.05 -21)"/><path class="a" d="M243,72.76a7.45,7.45,0,0,1-3.36,6.09,13.24,13.24,0,0,1-8.1,2.52H217.83a13.25,13.25,0,0,1-8.11-2.52,7.45,7.45,0,0,1-3.36-6.09V62.44a7.38,7.38,0,0,1,3.36-6,13,13,0,0,1,8.11-2.54h13.75a13,13,0,0,1,8.1,2.54,7.38,7.38,0,0,1,3.36,6Zm-9.16-.68V63.13a2.05,2.05,0,0,0-.94-1.69,3.81,3.81,0,0,0-2.28-.71H218.74a3.83,3.83,0,0,0-2.28.71,2.08,2.08,0,0,0-.92,1.69v8.95a2.1,2.1,0,0,0,.92,1.71,3.83,3.83,0,0,0,2.28.71h11.92a3.81,3.81,0,0,0,2.28-.71A2,2,0,0,0,233.88,72.08Z" transform="translate(-62.05 -21)"/><path class="a" d="M283.17,53.86l-13.3,27.51H259.79L246.53,53.86h10l8.26,19.83,8.26-19.83Z" transform="translate(-62.05 -21)"/><path class="a" d="M323.3,81.37H297.17a11.55,11.55,0,0,1-7.44-2.48,6.9,6.9,0,0,1,0-11.53,11.57,11.57,0,0,1,7.44-2.5h17V62.79a1.73,1.73,0,0,0-.83-1.43,3.07,3.07,0,0,0-1.92-.63H288.9V53.86h22.94a13,13,0,0,1,8.1,2.54,7.38,7.38,0,0,1,3.36,6Zm-9.16-6.87V70.37H298.53a3.13,3.13,0,0,0-1.92.62,1.75,1.75,0,0,0-.81,1.43,1.8,1.8,0,0,0,.81,1.45,3.07,3.07,0,0,0,1.92.63Z" transform="translate(-62.05 -21)"/><path class="a" d="M373.76,81.37h-9.18V63.13a2.07,2.07,0,0,0-.95-1.69,3.59,3.59,0,0,0-2.26-.71h-5.95V81.37h-9.19V60.73h-9.16V81.37h-9.18V53.86h34.4a13,13,0,0,1,8.11,2.54,7.38,7.38,0,0,1,3.36,6Z" transform="translate(-62.05 -21)"/><path class="a" d="M389.36,81.37h-9.18V53.86h9.18Z" transform="translate(-62.05 -21)"/><path class="a" d="M432.45,81.37h-9.16V63.13a2.05,2.05,0,0,0-.94-1.69,3.84,3.84,0,0,0-2.29-.71H405V81.37h-9.19V53.86H421a13,13,0,0,1,8.11,2.54,7.38,7.38,0,0,1,3.36,6Z" transform="translate(-62.05 -21)"/><path class="a" d="M448.05,81.37h-9.18V53.86h9.18Z" transform="translate(-62.05 -21)"/><path class="a" d="M491.14,81.37H482V63.13a2.05,2.05,0,0,0-.94-1.69,3.83,3.83,0,0,0-2.28-.71H463.64V81.37h-9.18V53.86h25.22a13,13,0,0,1,8.1,2.54,7.38,7.38,0,0,1,3.36,6Z" transform="translate(-62.05 -21)"/><path class="a" d="M532.41,81.37H507.2a13.25,13.25,0,0,1-8.11-2.52,7.45,7.45,0,0,1-3.36-6.09V62.44a7.38,7.38,0,0,1,3.36-6,13,13,0,0,1,8.11-2.54h22.93v6.87h-22a3.83,3.83,0,0,0-2.28.71,2.08,2.08,0,0,0-.92,1.69v8.95a2.1,2.1,0,0,0,.92,1.71,3.83,3.83,0,0,0,2.28.71h15.14V70.37h-9.18V64.86h18.34Z" transform="translate(-62.05 -21)"/><path class="a" d="M95.31,145.5a10,10,0,0,1-.59,3.54,7.69,7.69,0,0,1-1.66,2.68,7.07,7.07,0,0,1-2.55,1.69,9,9,0,0,1-3.3.59H81V137h6.2a9,9,0,0,1,3.3.59,7.07,7.07,0,0,1,2.55,1.69A7.69,7.69,0,0,1,94.72,142,10,10,0,0,1,95.31,145.5Zm-1.28,0a9.36,9.36,0,0,0-.49-3.16A6.78,6.78,0,0,0,92.16,140,6,6,0,0,0,90,138.52a7.37,7.37,0,0,0-2.79-.5h-5v15h5a7.37,7.37,0,0,0,2.79-.5A6,6,0,0,0,92.16,151a6.78,6.78,0,0,0,1.38-2.36A9.4,9.4,0,0,0,94,145.5Z" transform="translate(-62.05 -21)"/><path class="a" d="M113,137v1h-8.94v6.86h7.44v1h-7.44V153H113v1H102.85V137Z" transform="translate(-62.05 -21)"/><path class="a" d="M133,151.14a.29.29,0,0,1,.21.09l.48.51a7.92,7.92,0,0,1-1.15,1,7.58,7.58,0,0,1-1.37.77,8.31,8.31,0,0,1-1.62.49,10.42,10.42,0,0,1-1.93.17,8.14,8.14,0,0,1-3.24-.62,7.1,7.1,0,0,1-2.52-1.75,8.13,8.13,0,0,1-1.64-2.74,10.38,10.38,0,0,1-.58-3.58,9.93,9.93,0,0,1,.6-3.52,8,8,0,0,1,1.71-2.75,7.59,7.59,0,0,1,2.62-1.77,9.66,9.66,0,0,1,5.07-.49,7.78,7.78,0,0,1,1.44.39,7,7,0,0,1,1.25.64,10.44,10.44,0,0,1,1.15.89l-.37.54a.32.32,0,0,1-.3.15.54.54,0,0,1-.27-.13l-.43-.31c-.17-.13-.38-.26-.62-.41a5.9,5.9,0,0,0-.87-.41,7.59,7.59,0,0,0-1.17-.31,8.38,8.38,0,0,0-1.5-.13,7.3,7.3,0,0,0-2.84.54,6.19,6.19,0,0,0-2.23,1.52,6.91,6.91,0,0,0-1.46,2.4,9,9,0,0,0-.52,3.16,9.46,9.46,0,0,0,.51,3.22,7,7,0,0,0,1.43,2.39,6.06,6.06,0,0,0,2.15,1.5,6.88,6.88,0,0,0,2.7.53,9.74,9.74,0,0,0,1.62-.12,6.36,6.36,0,0,0,1.32-.36,5.87,5.87,0,0,0,1.11-.59,7.64,7.64,0,0,0,1-.82l.12-.08A.24.24,0,0,1,133,151.14Z" transform="translate(-62.05 -21)"/><path class="a" d="M151.3,137v1h-8.94v6.86h7.44v1h-7.44V153h8.94v1H141.12V137Z" transform="translate(-62.05 -21)"/><path class="a" d="M159.77,137.06a.57.57,0,0,1,.2.19L171,152a5.58,5.58,0,0,1,0-.7V137H172v17h-.59a.51.51,0,0,1-.44-.24l-11-14.74q0,.36,0,.69V154h-1.06V137h.6A.62.62,0,0,1,159.77,137.06Z" transform="translate(-62.05 -21)"/><path class="a" d="M191.74,137v1h-6V154h-1.22V138.06h-6v-1Z" transform="translate(-62.05 -21)"/><path class="a" d="M199.86,146.32V154h-1.22V137H203a7.11,7.11,0,0,1,4.39,1.13,4,4,0,0,1,1.45,3.33,4.66,4.66,0,0,1-.33,1.78,4.18,4.18,0,0,1-1,1.41,5.15,5.15,0,0,1-1.52,1,6.75,6.75,0,0,1-2,.51,2.12,2.12,0,0,1,.52.48l5.84,7.34h-1.07a.67.67,0,0,1-.33-.07,1,1,0,0,1-.27-.24l-5.43-6.89a1.22,1.22,0,0,0-.44-.37,1.89,1.89,0,0,0-.73-.11Zm0-.91h2.95a7,7,0,0,0,2-.27,4.32,4.32,0,0,0,1.51-.78,3.36,3.36,0,0,0,.94-1.21,3.7,3.7,0,0,0,.32-1.59,3.12,3.12,0,0,0-1.18-2.69A5.76,5.76,0,0,0,203,138h-3.11Z" transform="translate(-62.05 -21)"/><path class="a" d="M229.8,154h-1a.4.4,0,0,1-.27-.09.66.66,0,0,1-.17-.23l-2-4.94h-8.34l-2,4.94a.48.48,0,0,1-.16.22.43.43,0,0,1-.29.1h-.94l6.95-17h1.22Zm-11.36-6.17h7.61l-3.47-8.58c-.06-.13-.11-.29-.17-.46s-.11-.35-.17-.55c-.05.2-.11.38-.17.55s-.11.33-.16.47Z" transform="translate(-62.05 -21)"/><path class="a" d="M237.31,153h8.05v1h-9.27V137h1.22Z" transform="translate(-62.05 -21)"/><path class="a" d="M253.65,154h-1.24V137h1.24Z" transform="translate(-62.05 -21)"/><path class="a" d="M274.18,137v.42a.86.86,0,0,1-.17.49l-10.78,15h10.85v1H261.6v-.44a.79.79,0,0,1,.14-.44L272.54,138H261.91v-1Z" transform="translate(-62.05 -21)"/><path class="a" d="M291.71,137v1h-8.94v6.86h7.44v1h-7.44V153h8.94v1H281.53V137Z" transform="translate(-62.05 -21)"/><path class="a" d="M313.61,145.5A10,10,0,0,1,313,149a7.54,7.54,0,0,1-1.66,2.68,7.07,7.07,0,0,1-2.55,1.69,8.93,8.93,0,0,1-3.3.59h-6.19V137h6.19a8.93,8.93,0,0,1,3.3.59,7.07,7.07,0,0,1,2.55,1.69A7.54,7.54,0,0,1,313,142,10,10,0,0,1,313.61,145.5Zm-1.27,0a9.35,9.35,0,0,0-.5-3.16,6.63,6.63,0,0,0-1.38-2.36,6,6,0,0,0-2.16-1.46,7.37,7.37,0,0,0-2.79-.5h-5v15h5a7.37,7.37,0,0,0,2.79-.5,6,6,0,0,0,2.16-1.46,6.63,6.63,0,0,0,1.38-2.36A9.39,9.39,0,0,0,312.34,145.5Z" transform="translate(-62.05 -21)"/><path class="a" d="M331,147.16V154h-1.22V137h4.38a6.73,6.73,0,0,1,4.5,1.31,4.62,4.62,0,0,1,1.52,3.73,5.1,5.1,0,0,1-.41,2.05,4.66,4.66,0,0,1-1.2,1.62,5.58,5.58,0,0,1-1.89,1.05,7.94,7.94,0,0,1-2.52.38Zm0-1h3.16a6,6,0,0,0,2-.32,4.2,4.2,0,0,0,1.51-.86,3.8,3.8,0,0,0,1-1.3,4,4,0,0,0,.33-1.64,3.77,3.77,0,0,0-1.21-3,5.27,5.27,0,0,0-3.59-1.06H331Z" transform="translate(-62.05 -21)"/><path class="a" d="M357.41,137v1h-8.94v6.86h7.44v1h-7.44V153h8.94v1H347.23V137Z" transform="translate(-62.05 -21)"/><path class="a" d="M375.19,137v1h-8.94v6.86h7.44v1h-7.44V153h8.94v1H365V137Z" transform="translate(-62.05 -21)"/><path class="a" d="M384.38,146.32V154h-1.22V137h4.33a7.09,7.09,0,0,1,4.39,1.13,4,4,0,0,1,1.46,3.33,4.67,4.67,0,0,1-.34,1.78,4,4,0,0,1-1,1.41,5.23,5.23,0,0,1-1.51,1,6.81,6.81,0,0,1-2,.51,2,2,0,0,1,.52.48l5.84,7.34H393.8a.7.7,0,0,1-.33-.07,1,1,0,0,1-.27-.24l-5.43-6.89a1.15,1.15,0,0,0-.44-.37,1.89,1.89,0,0,0-.73-.11Zm0-.91h3a7,7,0,0,0,2-.27,4.32,4.32,0,0,0,1.51-.78,3.26,3.26,0,0,0,.94-1.21,3.7,3.7,0,0,0,.32-1.59,3.12,3.12,0,0,0-1.18-2.69,5.74,5.74,0,0,0-3.46-.88h-3.11Z" transform="translate(-62.05 -21)"/><path class="a" d="M400.22,146.39h5.58v1h-5.58Z" transform="translate(-62.05 -21)"/><path class="a" d="M422.05,137v1h-6V154h-1.23V138.06h-6v-1Z" transform="translate(-62.05 -21)"/><path class="a" d="M442.29,145.5a10.28,10.28,0,0,1-.58,3.57,8.11,8.11,0,0,1-1.66,2.74,7.17,7.17,0,0,1-2.56,1.75,9,9,0,0,1-6.57,0,7.25,7.25,0,0,1-2.56-1.75,8.11,8.11,0,0,1-1.66-2.74,11,11,0,0,1,0-7.12,8.11,8.11,0,0,1,1.66-2.74,7.41,7.41,0,0,1,2.56-1.76,8.48,8.48,0,0,1,3.28-.62,8.35,8.35,0,0,1,3.29.62,7.17,7.17,0,0,1,2.56,1.75,8.16,8.16,0,0,1,1.66,2.75A10.25,10.25,0,0,1,442.29,145.5Zm-1.27,0a9.67,9.67,0,0,0-.49-3.19,6.92,6.92,0,0,0-1.39-2.4,5.84,5.84,0,0,0-2.15-1.5,7.19,7.19,0,0,0-2.79-.53,7.09,7.09,0,0,0-2.77.53,6,6,0,0,0-2.16,1.5,6.79,6.79,0,0,0-1.4,2.4,10.46,10.46,0,0,0,0,6.39,6.79,6.79,0,0,0,1.4,2.4,6.09,6.09,0,0,0,2.16,1.5,7.27,7.27,0,0,0,2.77.51,7.37,7.37,0,0,0,2.79-.51,6,6,0,0,0,2.15-1.5,6.92,6.92,0,0,0,1.39-2.4A9.6,9.6,0,0,0,441,145.5Z" transform="translate(-62.05 -21)"/><path class="a" d="M448.57,146.39h5.58v1h-5.58Z" transform="translate(-62.05 -21)"/><path class="a" d="M463.05,147.16V154h-1.22V137h4.38a6.78,6.78,0,0,1,4.51,1.31,4.65,4.65,0,0,1,1.51,3.73,4.94,4.94,0,0,1-.41,2.05,4.64,4.64,0,0,1-1.19,1.62,5.63,5.63,0,0,1-1.9,1.05,7.85,7.85,0,0,1-2.52.38Zm0-1h3.16a6.07,6.07,0,0,0,2-.32,4.25,4.25,0,0,0,1.5-.86,3.8,3.8,0,0,0,.95-1.3,4,4,0,0,0,.33-1.64,3.77,3.77,0,0,0-1.21-3,5.27,5.27,0,0,0-3.59-1.06h-3.16Z" transform="translate(-62.05 -21)"/><path class="a" d="M489.49,137v1h-8.94v6.86H488v1h-7.44V153h8.94v1H479.31V137Z" transform="translate(-62.05 -21)"/><path class="a" d="M507.27,137v1h-8.94v6.86h7.44v1h-7.44V153h8.94v1H497.1V137Z" transform="translate(-62.05 -21)"/><path class="a" d="M516.46,146.32V154h-1.22V137h4.33a7.09,7.09,0,0,1,4.39,1.13,4,4,0,0,1,1.46,3.33,4.67,4.67,0,0,1-.34,1.78,4,4,0,0,1-1,1.41,5.28,5.28,0,0,1-1.52,1,6.73,6.73,0,0,1-2,.51,1.82,1.82,0,0,1,.52.48L527,154h-1.07a.72.72,0,0,1-.33-.07.83.83,0,0,1-.26-.24l-5.44-6.89a1.15,1.15,0,0,0-.44-.37,1.83,1.83,0,0,0-.72-.11Zm0-.91h3a7,7,0,0,0,2-.27,4.23,4.23,0,0,0,1.51-.78,3.26,3.26,0,0,0,.94-1.21,3.71,3.71,0,0,0,.33-1.59,3.12,3.12,0,0,0-1.19-2.69,5.72,5.72,0,0,0-3.46-.88h-3.11Z" transform="translate(-62.05 -21)"/><path class="a" d="M89.22,182.8H88v-8.14H77.35v8.14H76.11v-17h1.24v7.92H88v-7.92h1.24Z" transform="translate(-62.05 -21)"/><path class="a" d="M110.64,182.8h-1a.43.43,0,0,1-.28-.09.53.53,0,0,1-.16-.23l-2-4.94H98.9l-2,4.94a.51.51,0,0,1-.17.22.43.43,0,0,1-.29.1h-.93l6.94-17h1.23Zm-11.37-6.17h7.61l-3.47-8.58c0-.13-.11-.29-.16-.46s-.12-.35-.17-.55l-.17.55c-.06.17-.11.33-.17.47Z" transform="translate(-62.05 -21)"/><path class="a" d="M125.14,167.88a.33.33,0,0,1-.31.21.73.73,0,0,1-.4-.22,5.54,5.54,0,0,0-.67-.5,5.17,5.17,0,0,0-1.05-.49,4.43,4.43,0,0,0-1.56-.23,4.76,4.76,0,0,0-1.63.26,3.46,3.46,0,0,0-1.18.72,3,3,0,0,0-.72,1.06,3.18,3.18,0,0,0-.25,1.26,2.64,2.64,0,0,0,.36,1.43,3.55,3.55,0,0,0,1,1,6.45,6.45,0,0,0,1.37.66l1.56.54c.54.17,1.06.37,1.57.58a5.6,5.6,0,0,1,1.37.8,3.57,3.57,0,0,1,1,1.18,3.67,3.67,0,0,1,.37,1.74,5.32,5.32,0,0,1-.37,2,4.51,4.51,0,0,1-1.06,1.64,4.9,4.9,0,0,1-1.7,1.1,6.15,6.15,0,0,1-2.31.4,6.59,6.59,0,0,1-2.89-.59,6.84,6.84,0,0,1-2.12-1.63l.33-.53a.43.43,0,0,1,.34-.18.51.51,0,0,1,.28.15l.41.35c.16.14.35.29.57.46a5.72,5.72,0,0,0,.78.45,6.06,6.06,0,0,0,1,.36,5.85,5.85,0,0,0,1.31.14,5.09,5.09,0,0,0,1.81-.3,4.13,4.13,0,0,0,1.34-.84,3.55,3.55,0,0,0,.83-1.25,4.24,4.24,0,0,0,.29-1.56,2.69,2.69,0,0,0-.37-1.48,3.06,3.06,0,0,0-1-1,6,6,0,0,0-1.37-.65c-.51-.18-1-.35-1.57-.52s-1.06-.36-1.56-.56a5.6,5.6,0,0,1-1.37-.8,3.84,3.84,0,0,1-1-1.21,4.1,4.1,0,0,1-.36-1.82,4.44,4.44,0,0,1,.32-1.65,4.25,4.25,0,0,1,1-1.39,4.67,4.67,0,0,1,1.55-1,5.69,5.69,0,0,1,2.09-.36,6.39,6.39,0,0,1,2.38.42,5.68,5.68,0,0,1,1.91,1.28Z" transform="translate(-62.05 -21)"/><path class="a" d="M146.17,182.8h-1.24v-8.14H134.3v8.14h-1.24v-17h1.24v7.92h10.63v-7.92h1.24Z" transform="translate(-62.05 -21)"/><path class="a" d="M156.49,182.8h-1.24v-17h1.24Z" transform="translate(-62.05 -21)"/><path class="a" d="M166.45,165.86a.57.57,0,0,1,.2.19l11,14.71c0-.24,0-.47,0-.7V165.82h1.08v17h-.59a.51.51,0,0,1-.44-.24l-11-14.74q0,.36,0,.69V182.8h-1.07v-17h.6A.67.67,0,0,1,166.45,165.86Z" transform="translate(-62.05 -21)"/><path class="a" d="M194.62,182a12.93,12.93,0,0,0,1.6-.09,8.14,8.14,0,0,0,2.51-.71c.38-.17.75-.37,1.13-.58V176h-3.27a.29.29,0,0,1-.22-.08.26.26,0,0,1-.09-.19v-.67H201v6a9.8,9.8,0,0,1-1.32.79,8.25,8.25,0,0,1-1.46.59,13,13,0,0,1-1.68.36,15,15,0,0,1-2,.12,8.65,8.65,0,0,1-3.35-.62,7.36,7.36,0,0,1-2.61-1.75,7.9,7.9,0,0,1-1.68-2.74,11,11,0,0,1,0-7.15,7.7,7.7,0,0,1,1.7-2.73,7.47,7.47,0,0,1,2.68-1.75,9.46,9.46,0,0,1,3.54-.62,11.16,11.16,0,0,1,1.79.13,8.55,8.55,0,0,1,1.53.39,6.71,6.71,0,0,1,1.32.64,8.73,8.73,0,0,1,1.18.87l-.33.52a.33.33,0,0,1-.3.18.45.45,0,0,1-.2,0,2.31,2.31,0,0,1-.52-.34,5.3,5.3,0,0,0-.93-.55,7.61,7.61,0,0,0-1.46-.52,8.58,8.58,0,0,0-2.12-.23,8.12,8.12,0,0,0-3,.53,6.36,6.36,0,0,0-2.27,1.51,6.74,6.74,0,0,0-1.45,2.4,9.39,9.39,0,0,0-.51,3.18,9.56,9.56,0,0,0,.51,3.23,7,7,0,0,0,1.45,2.42,6.19,6.19,0,0,0,2.23,1.52A7.64,7.64,0,0,0,194.62,182Z" transform="translate(-62.05 -21)"/><path class="a" d="M218.71,176v6.84h-1.23v-17h4.38a6.74,6.74,0,0,1,4.51,1.31,4.65,4.65,0,0,1,1.52,3.73,5,5,0,0,1-.42,2,4.51,4.51,0,0,1-1.19,1.62,5.53,5.53,0,0,1-1.9,1.05,7.85,7.85,0,0,1-2.52.38Zm0-1h3.15a6,6,0,0,0,2-.32,4.38,4.38,0,0,0,1.51-.86,3.77,3.77,0,0,0,.94-1.3,4,4,0,0,0,.33-1.64,3.79,3.79,0,0,0-1.2-3,5.3,5.3,0,0,0-3.6-1.06h-3.15Z" transform="translate(-62.05 -21)"/><path class="a" d="M250.11,174.3a10.05,10.05,0,0,1-.59,3.57,7.93,7.93,0,0,1-1.65,2.74,7.25,7.25,0,0,1-2.56,1.75,9,9,0,0,1-6.57,0,7.17,7.17,0,0,1-2.56-1.75,8,8,0,0,1-1.66-2.74,10.86,10.86,0,0,1,0-7.12,8,8,0,0,1,1.66-2.74,7.32,7.32,0,0,1,2.56-1.76,8.47,8.47,0,0,1,3.27-.62,8.37,8.37,0,0,1,3.3.62,7.25,7.25,0,0,1,2.56,1.75,8,8,0,0,1,1.65,2.75A10,10,0,0,1,250.11,174.3Zm-1.27,0a9.67,9.67,0,0,0-.49-3.19,6.92,6.92,0,0,0-1.39-2.4,5.84,5.84,0,0,0-2.15-1.5,7.2,7.2,0,0,0-2.8-.53,7,7,0,0,0-2.76.53,6,6,0,0,0-2.16,1.5,6.81,6.81,0,0,0-1.41,2.4,10.46,10.46,0,0,0,0,6.39,6.81,6.81,0,0,0,1.41,2.4,6.09,6.09,0,0,0,2.16,1.5,7.22,7.22,0,0,0,2.76.51,7.39,7.39,0,0,0,2.8-.51,6,6,0,0,0,2.15-1.5,6.92,6.92,0,0,0,1.39-2.4A9.6,9.6,0,0,0,248.84,174.3Z" transform="translate(-62.05 -21)"/><path class="a" d="M255.39,165.82h1a.42.42,0,0,1,.44.32l4.29,14c.05.16.09.33.13.52s.07.37.11.57q.06-.3.12-.57c0-.19.09-.36.14-.52l4.8-14a.6.6,0,0,1,.17-.22.43.43,0,0,1,.29-.1h.33a.41.41,0,0,1,.28.09.66.66,0,0,1,.17.23l4.8,14,.15.5q.06.27.12.57c0-.19.08-.38.11-.56s.08-.35.12-.51l4.29-14a.42.42,0,0,1,.16-.22.43.43,0,0,1,.29-.1h.94l-5.34,17h-1.11l-5-14.74a4.89,4.89,0,0,1-.17-.61,4.89,4.89,0,0,1-.17.61l-5,14.74h-1.09Z" transform="translate(-62.05 -21)"/><path class="a" d="M295.17,165.82v1h-8.94v6.86h7.44v1h-7.44v7.08h8.94v1H285v-17Z" transform="translate(-62.05 -21)"/><path class="a" d="M304.36,175.12v7.68h-1.22v-17h4.33a7.11,7.11,0,0,1,4.39,1.13,4,4,0,0,1,1.45,3.33,4.66,4.66,0,0,1-.33,1.78,4.18,4.18,0,0,1-1,1.41,5.15,5.15,0,0,1-1.52,1,6.75,6.75,0,0,1-2,.51,2.12,2.12,0,0,1,.52.48l5.84,7.34h-1.07a.67.67,0,0,1-.33-.07,1,1,0,0,1-.27-.24l-5.43-6.89a1.22,1.22,0,0,0-.44-.37,1.89,1.89,0,0,0-.73-.11Zm0-.91h2.95a7,7,0,0,0,2-.27,4.32,4.32,0,0,0,1.51-.78,3.36,3.36,0,0,0,.94-1.21,3.71,3.71,0,0,0,.33-1.59,3.12,3.12,0,0,0-1.19-2.69,5.76,5.76,0,0,0-3.46-.88h-3.11Z" transform="translate(-62.05 -21)"/><path class="a" d="M338.23,178.58a2.5,2.5,0,0,1,.15-.38,4,4,0,0,1,.17-.36l6.67-11.79a.42.42,0,0,1,.19-.19.7.7,0,0,1,.27,0h.85v17h-1.08V168.33a5.07,5.07,0,0,1,0-.66l-6.69,11.87a.53.53,0,0,1-.48.31h-.19a.55.55,0,0,1-.48-.31l-6.86-11.88c0,.23,0,.45,0,.67V182.8h-1.07v-17h.84a.64.64,0,0,1,.27,0,.36.36,0,0,1,.2.19l6.85,11.81A4.75,4.75,0,0,1,338.23,178.58Z" transform="translate(-62.05 -21)"/><path class="a" d="M368,182.8H367a.4.4,0,0,1-.27-.09.55.55,0,0,1-.17-.23l-2-4.94h-8.34l-2,4.94a.51.51,0,0,1-.17.22.4.4,0,0,1-.28.1h-.94l6.95-17H361Zm-11.36-6.17h7.6l-3.46-8.58a3.44,3.44,0,0,1-.17-.46c-.06-.17-.11-.35-.17-.55-.06.2-.11.38-.17.55a4.24,4.24,0,0,1-.17.47Z" transform="translate(-62.05 -21)"/><path class="a" d="M375.82,175.12v7.68H374.6v-17h4.33a7.11,7.11,0,0,1,4.39,1.13,4,4,0,0,1,1.45,3.33,4.66,4.66,0,0,1-.33,1.78,4.18,4.18,0,0,1-1,1.41,5.15,5.15,0,0,1-1.52,1,6.75,6.75,0,0,1-2,.51,2.12,2.12,0,0,1,.52.48l5.84,7.34h-1.07a.67.67,0,0,1-.33-.07,1,1,0,0,1-.27-.24l-5.43-6.89a1.22,1.22,0,0,0-.44-.37,1.89,1.89,0,0,0-.73-.11Zm0-.91h2.95a7,7,0,0,0,2-.27,4.32,4.32,0,0,0,1.51-.78,3.36,3.36,0,0,0,.94-1.21,3.7,3.7,0,0,0,.32-1.59,3.12,3.12,0,0,0-1.18-2.69,5.76,5.76,0,0,0-3.46-.88h-3.11Z" transform="translate(-62.05 -21)"/><path class="a" d="M394.57,173.66h1l.4,0a1.55,1.55,0,0,0,.31-.07,2,2,0,0,0,.25-.14,2.35,2.35,0,0,0,.26-.22l6.85-7a1.27,1.27,0,0,1,.35-.27,1,1,0,0,1,.4-.08h1L398,173.44a3.17,3.17,0,0,1-.4.37,1.47,1.47,0,0,1-.39.22,1.35,1.35,0,0,1,.45.22,2.42,2.42,0,0,1,.4.39l7.83,8.16h-1a.8.8,0,0,1-.44-.09,2.6,2.6,0,0,1-.28-.23L397,175.13a2.55,2.55,0,0,0-.24-.23,1.43,1.43,0,0,0-.24-.16,1.31,1.31,0,0,0-.33-.09,3.23,3.23,0,0,0-.48,0h-1.09v8.18h-1.23v-17h1.23Z" transform="translate(-62.05 -21)"/><path class="a" d="M422.6,165.82v1h-8.94v6.86h7.44v1h-7.44v7.08h8.94v1H412.42v-17Z" transform="translate(-62.05 -21)"/><path class="a" d="M441.29,165.82v1h-6V182.8h-1.22V166.86h-6v-1Z" transform="translate(-62.05 -21)"/><path class="a" d="M449.42,176v6.84h-1.23v-17h4.38a6.76,6.76,0,0,1,4.51,1.31,4.65,4.65,0,0,1,1.52,3.73,5,5,0,0,1-.42,2,4.51,4.51,0,0,1-1.19,1.62,5.53,5.53,0,0,1-1.9,1.05,7.85,7.85,0,0,1-2.52.38Zm0-1h3.15a6,6,0,0,0,2-.32,4.38,4.38,0,0,0,1.51-.86,3.77,3.77,0,0,0,.94-1.3,4,4,0,0,0,.33-1.64,3.79,3.79,0,0,0-1.2-3,5.3,5.3,0,0,0-3.6-1.06h-3.15Z" transform="translate(-62.05 -21)"/><path class="a" d="M466.9,181.76H475v1h-9.27v-17h1.22Z" transform="translate(-62.05 -21)"/><path class="a" d="M494.33,182.8h-.95a.4.4,0,0,1-.27-.09.66.66,0,0,1-.17-.23l-2-4.94H482.6l-2,4.94a.48.48,0,0,1-.16.22.43.43,0,0,1-.29.1h-.94l7-17h1.22ZM483,176.63h7.61l-3.47-8.58c-.06-.13-.11-.29-.17-.46s-.11-.35-.17-.55c0,.2-.11.38-.17.55s-.11.33-.16.47Z" transform="translate(-62.05 -21)"/><path class="a" d="M512.6,179.94a.27.27,0,0,1,.2.09l.48.51a7.92,7.92,0,0,1-1.15,1,7.84,7.84,0,0,1-1.36.77,8.75,8.75,0,0,1-1.62.49,10.61,10.61,0,0,1-1.94.17,8.14,8.14,0,0,1-3.24-.62,7.1,7.1,0,0,1-2.52-1.75,8,8,0,0,1-1.63-2.74,10.15,10.15,0,0,1-.59-3.58,9.93,9.93,0,0,1,.6-3.52,8.2,8.2,0,0,1,1.71-2.75,7.63,7.63,0,0,1,2.63-1.77,8.76,8.76,0,0,1,3.37-.63,9,9,0,0,1,1.7.14,7.67,7.67,0,0,1,1.43.39,7,7,0,0,1,1.25.64,10.53,10.53,0,0,1,1.16.89l-.38.54a.32.32,0,0,1-.3.15.54.54,0,0,1-.27-.13l-.43-.31c-.17-.13-.38-.26-.62-.41a5.9,5.9,0,0,0-.87-.41,7.59,7.59,0,0,0-1.17-.31,8.38,8.38,0,0,0-1.5-.13,7.3,7.3,0,0,0-2.84.54,6.28,6.28,0,0,0-2.23,1.52,6.91,6.91,0,0,0-1.46,2.4,9,9,0,0,0-.52,3.16,9.46,9.46,0,0,0,.51,3.22,7,7,0,0,0,1.43,2.39,6,6,0,0,0,2.16,1.5,6.8,6.8,0,0,0,2.69.53,10,10,0,0,0,1.63-.12,6.44,6.44,0,0,0,1.31-.36,6.28,6.28,0,0,0,1.12-.59,9.16,9.16,0,0,0,1-.82l.11-.08A.28.28,0,0,1,512.6,179.94Z" transform="translate(-62.05 -21)"/><path class="a" d="M530.92,165.82v1H522v6.86h7.44v1H522v7.08h8.94v1H520.74v-17Z" transform="translate(-62.05 -21)"/><line class="b" x1="105.45" y1="88.5" x2="455.45" y2="88.5"/></svg>