<svg xmlns="http://www.w3.org/2000/svg" viewBox="0 0 474.96 166.26"><defs><style>.a,.b,.c,.h{fill:#fff;}.b{font-size:45.87px;font-family:SFAutomatonExtended, SF Automaton Extended;letter-spacing:0.1em;}.c{font-size:24px;font-family:Lato-Light, Lato;font-weight:300;letter-spacing:0.15em;}.d{letter-spacing:0.06em;}.e{letter-spacing:0.09em;}.f{letter-spacing:0.15em;}.g{letter-spacing:0.13em;}.h{stroke:#fff;stroke-miterlimit:10;}</style></defs><title>MaintenanceSmall</title><path class="a" d="M132.92,89.39V51.54L118.4,41.66l-13.49,9.23L91.37,41.71,76.85,51.59v37.8l14.52,9.89,13.54-9.18h0l13.54,9.18Zm-13.49,6.79V77.78l-14.52,9.88h0L92.17,79,131,53.79V88.32ZM130.11,52l-12,7.82L106.69,52.1l11.76-8ZM92.4,44.75l10.77,7.31L92.4,59.37ZM78.86,52.62l11.53-7.87V63.16l14.52-9.88L116.24,61,90.39,77.82h0V96.23L78.86,88.36ZM92.4,96.18V81.52l10.77,7.31Zm25.06-14.61V96.18l-10.77-7.3Z" transform="translate(-62.05 -21)"/><path class="a" d="M104.91,120,62.05,95.25V45.73L104.91,21l42.86,24.73V95.2l-.47.28Zm-41-25.81,41,23.66,41-23.66V46.86l-41-23.71-41,23.66Z" transform="translate(-62.05 -21)"/><text class="b" transform="translate(103.04 60.37) scale(1 0.9)">novamining</text><text class="c" transform="translate(16.45 133)">DECENTRALIZED PEER<tspan class="d" x="320.53" y="0">-</tspan><tspan class="e" x="329.95" y="0">T</tspan><tspan class="f" x="346.14" y="0">O-PEER</tspan><tspan x="-4.9" y="28.8">HASHING POWER MARKETPL</tspan><tspan class="g" x="400.54" y="28.8">A</tspan><tspan x="419.25" y="28.8">CE</tspan></text><line class="h" x1="105.45" y1="88.5" x2="455.45" y2="88.5"/></svg>